Run_40002
nRows=4
nColumns=164

# SIMM Motion File Header:
name Run_40002
datacolumns 164
datarows 4
otherdata 1
range 0.04000000 0.07000000
endheader
time	pelvis_tilt	pelvis_list	pelvis_rotation	pelvis_tx	pelvis_ty	pelvis_tz	hip_flexion_r	hip_adduction_r	hip_rotation_r	knee_angle_r	ankle_angle_r	hip_flexion_l	hip_adduction_l	hip_rotation_l	knee_angle_l	ankle_angle_l	lumbar_extension	lumbar_bending	lumbar_rotation	arm_flex_r	arm_add_r	arm_rot_r	elbow_flex_r	pro_sup_r	arm_flex_l	arm_add_l	arm_rot_l	elbow_flex_l	pro_sup_l	subtalar_angle_r	mtp_angle_r	subtalar_angle_l	mtp_angle_l	wrist_flex_r	wrist_dev_r	wrist_flex_l	wrist_dev_l	LASI_tx	LASI_ty	LASI_tz	RASI_tx	RASI_ty	RASI_tz	LPSI_tx	LPSI_ty	LPSI_tz	RPSI_tx	RPSI_ty	RPSI_tz	RTH1_tx	RTH1_ty	RTH1_tz	RTH3_tx	RTH3_ty	RTH3_tz	LTH1_tx	LTH1_ty	LTH1_tz	LTH2_tx	LTH2_ty	LTH2_tz	LTH3_tx	LTH3_ty	LTH3_tz	RTB1_tx	RTB1_ty	RTB1_tz	RTB2_tx	RTB2_ty	RTB2_tz	LTB1_tx	LTB1_ty	LTB1_tz	LTB2_tx	LTB2_ty	LTB2_tz	RCAL_tx	RCAL_ty	RCAL_tz	RTOE_tx	RTOE_ty	RTOE_tz	LCAL_tx	LCAL_ty	LCAL_tz	LTOE_tx	LTOE_ty	LTOE_tz	LACR_tx	LACR_ty	LACR_tz	RACR_tx	RACR_ty	RACR_tz	CLAV_tx	CLAV_ty	CLAV_tz	C7_tx	C7_ty	C7_tz	RUA1_tx	RUA1_ty	RUA1_tz	RUA2_tx	RUA2_ty	RUA2_tz	RUA3_tx	RUA3_ty	RUA3_tz	RLEL_tx	RLEL_ty	RLEL_tz	RMEL_tx	RMEL_ty	RMEL_tz	LUA1_tx	LUA1_ty	LUA1_tz	LUA2_tx	LUA2_ty	LUA2_tz	LUA3_tx	LUA3_ty	LUA3_tz	LLEL_tx	LLEL_ty	LLEL_tz	LMEL_tx	LMEL_ty	LMEL_tz	RFAsuperior_tx	RFAsuperior_ty	RFAsuperior_tz	RFAradius_tx	RFAradius_ty	RFAradius_tz	RFAulna_tx	RFAulna_ty	RFAulna_tz	LFAsuperior_tx	LFAsuperior_ty	LFAsuperior_tz	LFAradius_tx	LFAradius_ty	LFAradius_tz	LFAulna_tx	LFAulna_ty	LFAulna_tz	RTH2_tx	RTH2_ty	RTH2_tz	RTB3_tx	RTB3_ty	RTB3_tz	RMT5_tx	RMT5_ty	RMT5_tz	LMT5_tx	LMT5_ty	LMT5_tz	LTB3_tx	LTB3_ty	LTB3_tz
      0.04000000	     -4.00603427	     -1.69830990	      5.03671703	      0.78151996	      1.01099844	     -0.34774267	     42.96476991	      0.05504121	     -7.52119875	    -94.86265981	     -1.68456707	     -4.85114353	      1.40915019	     -3.71591598	    -27.29029440	     -0.39746754	     -7.35884104	      2.06185136	    -18.46581147	    -24.66119886	    -23.23505788	     11.68016437	     66.00035356	     70.54831911	     -0.71586895	    -38.17103052	     16.35955744	    116.84029628	     75.43997723	      0.00000000	      0.00000000	      0.00000000	      0.00000000	      0.00000000	      0.00000000	      0.00000000	      0.00000000	      0.78004301	      0.99514718	     -0.47502959	      0.79034459	      1.01623250	     -0.22274507	      0.60612396	      1.08546941	     -0.38001257	      0.60574020	      1.08358014	     -0.29634821	      0.77741037	      0.89583701	     -0.15870089	      0.89899127	      0.69866903	     -0.18389721	      0.68815034	      0.88649725	     -0.52537913	      0.73108432	      0.75930827	     -0.50465739	      0.61923569	      0.64197826	     -0.48688848	      0.89940374	      0.49441726	     -0.25085374	      0.79041162	      0.46845832	     -0.19906984	      0.59275919	      0.40893781	     -0.41554665	      0.49450914	      0.37238218	     -0.46733551	      0.54252038	      0.39703214	     -0.27783928	      0.69279458	      0.21840806	     -0.27501115	      0.28142620	      0.18147680	     -0.34587600	      0.47344979	      0.06693175	     -0.36850808	      0.80243886	      1.52355368	     -0.51201116	      0.74118356	      1.52315919	     -0.17323295	      0.83332982	      1.47979412	     -0.30718469	      0.70697962	      1.55680988	     -0.36896635	      0.65263476	      1.44117152	     -0.09788117	      0.56455783	      1.39080457	     -0.13673985	      0.57698406	      1.34896009	     -0.07118722	      0.52565287	      1.26733161	     -0.04382553	      0.49945436	      1.25910279	     -0.12015530	      0.79111819	      1.42611172	     -0.61561008	      0.73467988	      1.33824018	     -0.62799547	      0.79755534	      1.31999942	     -0.67355126	      0.82063860	      1.24167399	     -0.71181142	      0.76417819	      1.19382630	     -0.68164284	      0.54718455	      1.18798323	     -0.03646349	      0.67508208	      1.03256781	     -0.08004471	      0.60869549	      1.00857141	     -0.07041464	      0.90936339	      1.21133396	     -0.62619476	      0.96283502	      1.24499251	     -0.48374506	      0.97017687	      1.17888081	     -0.49955517	      0.90196242	      0.81966887	     -0.17874834	      0.72966819	      0.38618510	     -0.25877324	      0.64919447	      0.21979135	     -0.18964658	      0.42270935	      0.05081451	     -0.44397537	      0.46907383	      0.24552368	     -0.38872508
      0.05000000	     -4.07417932	     -2.38303591	      4.98686588	      0.78443437	      1.01953886	     -0.34918203	     43.26323950	      0.26798338	     -7.82250842	    -88.81357320	     -1.19779314	     -7.79286754	      0.29823313	     -4.26374529	    -24.83359201	     -7.32078346	     -6.84895666	      3.19415196	    -19.10645280	    -26.30203744	    -24.21030174	     10.96947430	     67.56389069	     70.90954994	     -0.14403426	    -37.44126656	     16.00819691	    118.76710718	     76.03506632	      0.00000000	      0.00000000	      0.00000000	      0.00000000	      0.00000000	      0.00000000	      0.00000000	      0.00000000	      0.78233946	      1.00180941	     -0.47630758	      0.79223967	      1.02650327	     -0.22435614	      0.60951919	      1.09325195	     -0.38200746	      0.60923060	      1.09144311	     -0.29781936	      0.77930803	      0.90856525	     -0.15836028	      0.90164503	      0.70949867	     -0.18419229	      0.68772494	      0.89351748	     -0.52600111	      0.72374435	      0.76512812	     -0.50531600	      0.60544797	      0.65361063	     -0.48788095	      0.91659043	      0.49809151	     -0.24850508	      0.80979966	      0.46188689	     -0.19826747	      0.57071892	      0.42127878	     -0.41965932	      0.47110975	      0.38749147	     -0.47085061	      0.57283261	      0.36265585	     -0.28049301	      0.74144209	      0.20215332	     -0.27077675	      0.26294979	      0.20271735	     -0.35116529	      0.43824513	      0.06728724	     -0.36953021	      0.80438316	      1.53333360	     -0.50862894	      0.73939864	      1.53193983	     -0.17208424	      0.83247815	      1.48953629	     -0.30507295	      0.70744239	      1.56518566	     -0.36765492	      0.64803978	      1.45295488	     -0.09814967	      0.56178536	      1.40228924	     -0.13949177	      0.57174904	      1.36247790	     -0.07152299	      0.51893383	      1.28124601	     -0.04483454	      0.49351337	      1.27325275	     -0.12168965	      0.79629936	      1.43590749	     -0.61254617	      0.74049468	      1.34816562	     -0.62618048	      0.80451757	      1.32946946	     -0.66890099	      0.82877486	      1.25161333	     -0.70800089	      0.77318124	      1.20281105	     -0.67763380	      0.54002699	      1.20182614	     -0.03709533	      0.66740821	      1.04589455	     -0.07971013	      0.60102163	      1.02192012	     -0.07066631	      0.91678172	      1.22667105	     -0.62012557	      0.96587996	      1.26622184	     -0.47749282	      0.97644230	      1.19998912	     -0.49153583	      0.90413598	      0.82837188	     -0.18032757	      0.75945541	      0.37252720	     -0.25742839	      0.69650377	      0.20028399	     -0.18660057	      0.38614322	      0.05314387	     -0.44411853	      0.44812589	      0.25742490	     -0.39577873
      0.06000000	     -4.21105849	     -3.11752060	      4.96517152	      0.78736047	      1.02752518	     -0.35042234	     43.20169985	      0.58893560	     -8.24684816	    -82.20956418	     -1.20394694	    -10.39559029	     -0.87055917	     -4.96831547	    -22.63871867	    -13.98619975	     -6.24191350	      4.36984096	    -19.65923634	    -28.00264210	    -25.13370442	     10.15173377	     69.15335317	     71.27569141	      0.37765243	    -36.82545115	     15.85114094	    120.63660247	     76.71335460	      0.00000000	      0.00000000	      0.00000000	      0.00000000	      0.00000000	      0.00000000	      0.00000000	      0.00000000	      0.78461673	      1.00797648	     -0.47711966	      0.79421817	      1.03612191	     -0.22578166	      0.61317830	      1.10063179	     -0.38356387	      0.61260315	      1.09905422	     -0.29939712	      0.78150523	      0.92015644	     -0.15862050	      0.90278079	      0.71844793	     -0.18454775	      0.68711040	      0.90032900	     -0.52694388	      0.71656790	      0.77097627	     -0.50634858	      0.59261702	      0.66515898	     -0.48867975	      0.93250972	      0.50082308	     -0.24645009	      0.82907838	      0.45417828	     -0.19758597	      0.55074147	      0.43343943	     -0.42341633	      0.45003389	      0.40230295	     -0.47417808	      0.60503103	      0.32853934	     -0.28248552	      0.79001953	      0.18695081	     -0.26720765	      0.24650712	      0.22497120	     -0.35699437	      0.40541084	      0.06918833	     -0.37162614	      0.80595343	      1.54273295	     -0.50489711	      0.73780269	      1.54023436	     -0.17098843	      0.83161933	      1.49875150	     -0.30284037	      0.70784016	      1.57324466	     -0.36617649	      0.64421065	      1.46380577	     -0.09851134	      0.55916625	      1.41398430	     -0.14142567	      0.56706373	      1.37533143	     -0.07180997	      0.51274299	      1.29456495	     -0.04571221	      0.48825620	      1.28676340	     -0.12321120	      0.80097785	      1.44572186	     -0.60952027	      0.74558173	      1.35817202	     -0.62444379	      0.81066362	      1.33916554	     -0.66492126	      0.83616640	      1.26163257	     -0.70465505	      0.78134609	      1.21192446	     -0.67431627	      0.53330830	      1.21503660	     -0.03763354	      0.66060845	      1.05855130	     -0.07941884	      0.59423446	      1.03470444	     -0.07078673	      0.92301103	      1.24171912	     -0.61455507	      0.96761218	      1.28637788	     -0.47172144	      0.98130990	      1.22016684	     -0.48416103	      0.90559860	      0.83641280	     -0.18050850	      0.78940294	      0.35882301	     -0.25615257	      0.74423726	      0.18145924	     -0.18428544	      0.35074135	      0.05744452	     -0.44448580	      0.42836757	      0.26959088	     -0.40236018
      0.07000000	     -4.53819570	     -3.75439111	      4.91044912	      0.79017561	      1.03445299	     -0.35129868	     42.93430721	      0.93898412	     -8.65515170	    -75.07452750	     -1.61805364	    -12.28166289	     -1.93923992	     -5.93891471	    -21.31264752	    -19.48351474	     -5.42075325	      5.40303225	    -20.04182765	    -29.74903799	    -25.93387062	      9.21558884	     70.74346907	     71.57390673	      0.75274744	    -36.40884865	     15.96889670	    122.43059639	     77.45961744	      0.00000000	      0.00000000	      0.00000000	      0.00000000	      0.00000000	      0.00000000	      0.00000000	      0.00000000	      0.78683883	      1.01329151	     -0.47719595	      0.79622212	      1.04434818	     -0.22726442	      0.61694855	      1.10744902	     -0.38474076	      0.61576445	      1.10631300	     -0.30116367	      0.78349256	      0.92968902	     -0.15961384	      0.90168051	      0.72459257	     -0.18506007	      0.68630438	      0.90685486	     -0.52822978	      0.71007542	      0.77684020	     -0.50783906	      0.58183674	      0.67621542	     -0.48929694	      0.94644210	      0.50205556	     -0.24477330	      0.84802290	      0.44485105	     -0.19696598	      0.53399832	      0.44507249	     -0.42632869	      0.43265363	      0.41656363	     -0.47716491	      0.63995055	      0.29495829	     -0.28346281	      0.83845765	      0.17344307	     -0.26478496	      0.23212084	      0.24834323	     -0.36278734	      0.37555658	      0.07411140	     -0.37533139	      0.80694905	      1.55133786	     -0.50056770	      0.73655984	      1.54760750	     -0.16994663	      0.83085870	      1.50702244	     -0.30046205	      0.70811779	      1.58064549	     -0.36447076	      0.64143955	      1.47336723	     -0.09872072	      0.55689382	      1.42556295	     -0.14233392	      0.56312434	      1.38700792	     -0.07194978	      0.50728589	      1.30676041	     -0.04631452	      0.48392434	      1.29913023	     -0.12456568	      0.80487994	      1.45538767	     -0.60651169	      0.74966988	      1.36807880	     -0.62293280	      0.81566120	      1.34900894	     -0.66200830	      0.84242065	      1.27157309	     -0.70201992	      0.78822953	      1.22102368	     -0.67204625	      0.52729304	      1.22709962	     -0.03796780	      0.65515391	      1.07015780	     -0.07901122	      0.58880513	      1.04644774	     -0.07069226	      0.92748027	      1.25609993	     -0.60979147	      0.96755519	      1.30460269	     -0.46676655	      0.98415010	      1.23864592	     -0.47779734	      0.90572308	      0.84297266	     -0.17908218	      0.81956256	      0.34515697	     -0.25503718	      0.79265480	      0.16368772	     -0.18299956	      0.31691013	      0.06541351	     -0.44528498	      0.41005473	      0.28230517	     -0.40788475
